<svg xmlns="http://www.w3.org/2000/svg" viewBox="7 11 47 38" width="32" height="32">
<path d="M16.4864 47.0504C15.3928 47.5907 11.8274 49.1244 11.749 46.8281C11.6443 43.7531 14.3154 39.8121 15.9655 37.26C16.0495 37.13 16.1133 36.7401 16.0402 36.6078C15.7468 36.0769 11.3306 36.1173 9.12999 34.4087C7.89926 33.4533 7.62963 31.8061 8.53418 30.5279C9.60524 29.0136 12.6767 27.8782 14.3801 27.5598L17.4318 26.9892C17.658 26.9469 17.9967 26.7758 18.0739 26.5961C18.1492 26.4202 18.1092 26.0121 17.9958 25.8076C16.796 23.6436 14.6338 19.617 14.8394 17.1639C14.9013 16.4254 15.4377 15.9289 16.1773 16.0708C16.8969 16.2088 17.6087 16.4651 18.2707 16.8201C20.0842 17.7921 21.753 18.8617 23.463 20.0216C23.5965 20.1122 23.9839 20.152 24.1076 20.0674C24.2314 19.9828 24.3819 19.7449 24.4282 19.5512C24.9365 17.4146 25.7286 14.1557 27.5452 12.8651C28.4519 12.221 29.5117 12.4411 30.1307 13.3543C30.8015 14.3443 31.2874 15.4149 31.7423 16.5469L32.3635 18.0913C32.4044 18.1928 32.5994 18.3585 32.69 18.3868C32.7987 18.4205 33.0196 18.3197 33.1268 18.2145C35.1418 16.2383 39.6651 11.8998 42.4725 11.951C44.9484 11.9962 42.4771 17.9946 42.0003 19.1418L40.3966 23.0021C40.3335 23.1538 40.3525 23.5177 40.4291 23.65C40.5165 23.801 40.8746 23.9203 41.0952 23.9002C42.6959 23.754 52.0781 22.4684 50.8486 25.9412C50.6143 26.6034 50.2259 27.2163 49.7254 27.7401C47.2292 30.3533 44.524 31.7056 41.3736 33.3152C41.1927 33.4078 40.9443 33.7122 40.9071 33.8894C40.869 34.0713 40.9664 34.4224 41.094 34.6129C41.8294 35.7134 47.8541 44.1997 44.5828 44.4719C42.0585 44.6822 38.6069 42.922 36.2935 41.8015C36.0782 41.6972 35.7145 41.6479 35.5395 41.7405C35.3314 41.8505 35.1668 42.1991 35.1339 42.4707C34.9727 43.7999 34.8377 45.0826 34.3741 46.2998C33.8726 47.6158 32.5822 48.1728 31.3199 47.5742C28.6282 46.2979 27.1637 41.557 26.4197 41.3385C26.2317 41.2834 25.7801 41.348 25.6046 41.4638L21.8886 43.9096C20.127 45.0692 18.3751 46.1163 16.4864 47.0497V47.0504Z" fill="#EA3A3B"/>
<path d="M16.8547 43.9583C18.3657 42.9905 19.7649 41.9854 21.2146 40.925L25.4849 37.8011C25.8973 37.4996 26.3775 37.2664 26.8422 37.0912C27.414 36.8758 27.9826 37.1408 28.2541 37.6834L30.4241 42.0223C30.6338 42.4415 31.3468 43.4573 31.8991 43.2681C32.415 43.0916 32.4931 42.2188 32.5097 41.6868L32.62 38.0927C32.6288 37.8125 32.8328 37.4165 33.0287 37.303C33.2327 37.1847 33.688 37.1405 33.9154 37.2734L36.4357 38.7438C37.1305 39.149 40.1485 40.9908 40.754 40.3983C41.0533 40.1053 40.8765 39.5637 40.6765 39.2466C39.2933 37.0534 38.0332 35.7916 36.5538 33.7503C36.3813 33.5124 36.3207 33.036 36.4072 32.7666C36.4737 32.5593 36.7615 32.2879 37.028 32.1623C39.4117 31.0374 41.732 29.9388 44.0469 28.6847C44.5718 28.4004 45.916 27.639 45.6967 27.0302C45.4686 26.3973 42.2963 26.9237 41.4951 27.0343L36.4359 27.7325C36.1682 27.7694 35.7254 27.6329 35.5892 27.4488C35.1477 26.8527 35.8645 25.605 36.2129 24.8993L38.7703 19.7214C39.0399 19.1756 39.8423 17.4492 39.3849 17.0726C38.9621 16.7247 38.0345 17.4327 37.6582 17.7587C36.2138 19.0102 34.9459 20.3705 33.6792 21.8069C32.9349 22.651 32.0076 23.9664 31.0896 23.6973C30.8369 23.6232 30.5338 23.26 30.4519 22.9388L29.723 20.0804C29.5474 19.3922 29.0474 17.1136 28.3269 17.2157C27.4449 17.3407 27.2081 20.4777 27.1271 21.3517L26.8847 23.9652C26.8603 24.2266 26.6197 24.5386 26.4422 24.648C25.8545 25.0099 24.9228 24.3093 24.331 23.8764C22.9444 22.8621 21.6084 21.8854 20.1717 20.9443C19.8627 20.742 19.2531 20.5779 19.03 20.9102C18.831 21.207 18.9681 21.7824 19.135 22.1172C19.8492 23.5517 20.7003 24.841 21.569 26.1791L22.6541 27.8511C22.8238 28.1125 22.8503 28.6125 22.7031 28.8864C22.5841 29.1078 22.2217 29.3861 21.9048 29.415L18.9528 29.6834C16.4354 29.9124 12.6067 30.0657 10.3667 31.1248C10.0758 31.2622 9.87961 31.6617 9.90834 31.9343C9.93302 32.1687 10.2392 32.5048 10.5379 32.592C11.9108 32.9934 13.2737 33.1915 14.7169 33.3646L20.8 34.0945C21.0471 34.1241 21.3596 34.4211 21.4202 34.611C21.4818 34.8038 21.3462 35.1383 21.1975 35.3183L17.9292 39.2705C17.4284 39.8761 14.2614 44.0129 15.1431 44.5409C15.4987 44.754 16.5013 44.1844 16.8547 43.9579V43.9583Z" fill="#EA3A3B"/>
<path d="M28.9402 32.327C28.9365 33.6154 27.9079 34.4395 26.7134 34.3861C25.6208 34.3371 24.5678 33.6027 24.5494 32.4145L24.5016 29.352C24.4906 28.6583 24.9727 28.0403 25.6861 27.9999C26.3403 27.963 26.9793 27.9617 27.6536 27.9824C28.3372 28.0034 28.9509 28.567 28.949 29.2721L28.9402 32.327Z" fill="#EA3A3B"/>
<path d="M32.3394 33.8706C33.5411 33.8706 34.5153 32.879 34.5153 31.6557C34.5153 30.4325 33.5411 29.4408 32.3394 29.4408C31.1376 29.4408 30.1635 30.4325 30.1635 31.6557C30.1635 32.879 31.1376 33.8706 32.3394 33.8706Z" fill="#EA3A3B"/>
</svg>
