<svg width="154" height="60" viewBox="0 0 154 60" fill="none" xmlns="http://www.w3.org/2000/svg">
<path d="M16.4864 47.0503C15.3928 47.5907 11.8274 49.1243 11.749 46.828C11.6443 43.753 14.3154 39.8121 15.9655 37.26C16.0495 37.1299 16.1133 36.74 16.0402 36.6077C15.7468 36.0769 11.3306 36.1173 9.12999 34.4087C7.89926 33.4532 7.62963 31.806 8.53418 30.5278C9.60524 29.0135 12.6767 27.8781 14.3801 27.5597L17.4318 26.9891C17.658 26.9468 17.9967 26.7757 18.0739 26.596C18.1492 26.4201 18.1092 26.0121 17.9958 25.8076C16.796 23.6435 14.6338 19.617 14.8394 17.1638C14.9013 16.4253 15.4377 15.9288 16.1773 16.0707C16.8969 16.2087 17.6087 16.465 18.2707 16.82C20.0842 17.792 21.753 18.8616 23.463 20.0215C23.5965 20.1122 23.9839 20.1519 24.1076 20.0673C24.2314 19.9828 24.3819 19.7449 24.4282 19.5512C24.9365 17.4145 25.7286 14.1557 27.5452 12.865C28.4519 12.2209 29.5117 12.441 30.1307 13.3542C30.8015 14.3443 31.2874 15.4149 31.7423 16.5468L32.3635 18.0913C32.4044 18.1927 32.5994 18.3584 32.69 18.3867C32.7987 18.4204 33.0196 18.3197 33.1268 18.2144C35.1418 16.2383 39.6651 11.8998 42.4725 11.9509C44.9484 11.9961 42.4771 17.9946 42.0003 19.1418L40.3966 23.002C40.3335 23.1537 40.3525 23.5176 40.4291 23.6499C40.5165 23.8009 40.8746 23.9203 41.0952 23.9002C42.6959 23.7539 52.0781 22.4683 50.8486 25.9412C50.6143 26.6033 50.2259 27.2162 49.7254 27.7401C47.2292 30.3532 44.524 31.7055 41.3736 33.3152C41.1927 33.4077 40.9443 33.7122 40.9071 33.8893C40.869 34.0712 40.9664 34.4223 41.094 34.6128C41.8294 35.7133 47.8541 44.1996 44.5828 44.4719C42.0585 44.6821 38.6069 42.922 36.2935 41.8015C36.0782 41.6971 35.7145 41.6479 35.5395 41.7404C35.3314 41.8505 35.1668 42.1991 35.1339 42.4706C34.9727 43.7998 34.8377 45.0825 34.3741 46.2997C33.8726 47.6158 32.5822 48.1727 31.3199 47.5741C28.6282 46.2978 27.1637 41.5569 26.4197 41.3384C26.2317 41.2833 25.7801 41.3479 25.6046 41.4637L21.8886 43.9095C20.127 45.0692 18.3751 46.1162 16.4864 47.0497V47.0503ZM16.8547 43.9582C18.3657 42.9904 19.7649 41.9853 21.2146 40.9249L25.4849 37.801C25.8973 37.4995 26.3775 37.2664 26.8422 37.0911C27.414 36.8758 27.9826 37.1407 28.2541 37.6833L30.4241 42.0222C30.6338 42.4414 31.3468 43.4573 31.8991 43.2681C32.415 43.0915 32.4931 42.2187 32.5097 41.6867L32.62 38.0927C32.6288 37.8125 32.8328 37.4165 33.0287 37.3029C33.2327 37.1846 33.688 37.1404 33.9154 37.2734L36.4357 38.7437C37.1305 39.1489 40.1485 40.9908 40.754 40.3983C41.0533 40.1053 40.8765 39.5637 40.6765 39.2465C39.2933 37.0533 38.0332 35.7916 36.5538 33.7503C36.3813 33.5124 36.3207 33.036 36.4072 32.7665C36.4737 32.5592 36.7615 32.2879 37.028 32.1622C39.4117 31.0373 41.732 29.9388 44.0469 28.6847C44.5718 28.4004 45.916 27.6389 45.6967 27.0302C45.4686 26.3973 42.2963 26.9236 41.4951 27.0343L36.4359 27.7324C36.1682 27.7693 35.7254 27.6329 35.5892 27.4487C35.1477 26.8527 35.8645 25.605 36.2129 24.8992L38.7703 19.7213C39.0399 19.1755 39.8423 17.4491 39.3849 17.0725C38.9621 16.7246 38.0345 17.4326 37.6582 17.7586C36.2138 19.0101 34.9459 20.3704 33.6792 21.8068C32.9349 22.6509 32.0076 23.9663 31.0896 23.6973C30.8369 23.6232 30.5338 23.26 30.4519 22.9387L29.723 20.0804C29.5474 19.3921 29.0474 17.1136 28.3269 17.2157C27.4449 17.3407 27.2081 20.4776 27.1271 21.3516L26.8847 23.9651C26.8603 24.2265 26.6197 24.5385 26.4422 24.6479C25.8545 25.0099 24.9228 24.3092 24.331 23.8763C22.9444 22.8621 21.6084 21.8854 20.1717 20.9442C19.8627 20.7419 19.2531 20.5778 19.03 20.9102C18.831 21.2069 18.9681 21.7823 19.135 22.1172C19.8492 23.5516 20.7003 24.841 21.569 26.1791L22.6541 27.8511C22.8238 28.1125 22.8503 28.6124 22.7031 28.8863C22.5841 29.1077 22.2217 29.386 21.9048 29.4149L18.9528 29.6833C16.4354 29.9124 12.6067 30.0657 10.3667 31.1248C10.0758 31.2622 9.87961 31.6616 9.90834 31.9342C9.93302 32.1686 10.2392 32.5048 10.5379 32.5919C11.9108 32.9933 13.2737 33.1915 14.7169 33.3645L20.8 34.0944C21.0471 34.124 21.3596 34.4211 21.4202 34.6109C21.4818 34.8037 21.3462 35.1383 21.1975 35.3183L17.9292 39.2704C17.4284 39.876 14.2614 44.0129 15.1431 44.5409C15.4987 44.754 16.5013 44.1844 16.8547 43.9579V43.9582Z" fill="#EA3A3B"/>
<path d="M28.9402 32.3271C28.9365 33.6155 27.9079 34.4396 26.7134 34.3862C25.6208 34.3372 24.5678 33.6028 24.5494 32.4146L24.5016 29.352C24.4906 28.6584 24.9727 28.0404 25.6861 28C26.3403 27.9631 26.9793 27.9618 27.6536 27.9825C28.3372 28.0035 28.9509 28.5671 28.949 29.2722L28.9402 32.3271Z" fill="#EA3A3B"/>
<path d="M32.3394 33.8706C33.5411 33.8706 34.5153 32.879 34.5153 31.6557C34.5153 30.4325 33.5411 29.4408 32.3394 29.4408C31.1376 29.4408 30.1635 30.4325 30.1635 31.6557C30.1635 32.879 31.1376 33.8706 32.3394 33.8706Z" fill="#EA3A3B"/>
<path d="M100.328 48.4918H109.919V51H100.328V48.4918H97.9189V46H100.328V48.4918Z" fill="#EA3A3B"/>
<path d="M67.6035 11.5C68.4568 11.5 69.2035 11.6567 69.8435 11.97C70.4901 12.2833 70.9935 12.7233 71.3535 13.29C71.7135 13.85 71.8935 14.5033 71.8935 15.25C71.8935 15.9967 71.7135 16.6533 71.3535 17.22C70.9935 17.78 70.4901 18.2167 69.8435 18.53C69.2035 18.8433 68.4568 19 67.6035 19H64.2135V11.5H67.6035ZM65.5335 18.54L64.8035 17.84H67.6935C68.2668 17.84 68.7668 17.7333 69.1935 17.52C69.6268 17.3 69.9601 16.9967 70.1935 16.61C70.4335 16.2167 70.5535 15.7633 70.5535 15.25C70.5535 14.73 70.4335 14.2767 70.1935 13.89C69.9601 13.5033 69.6268 13.2033 69.1935 12.99C68.7668 12.77 68.2668 12.66 67.6935 12.66H64.8035L65.5335 11.96V18.54ZM77.0783 19.14C76.225 19.14 75.475 18.9767 74.8283 18.65C74.1817 18.3233 73.6783 17.87 73.3183 17.29C72.9583 16.7033 72.7783 16.0233 72.7783 15.25C72.7783 14.4767 72.9583 13.8 73.3183 13.22C73.6783 12.6333 74.1817 12.1767 74.8283 11.85C75.475 11.5233 76.225 11.36 77.0783 11.36C77.9317 11.36 78.6817 11.5233 79.3283 11.85C79.975 12.1767 80.4783 12.6333 80.8383 13.22C81.1983 13.8 81.3783 14.4767 81.3783 15.25C81.3783 16.0233 81.1983 16.7033 80.8383 17.29C80.4783 17.87 79.975 18.3233 79.3283 18.65C78.6817 18.9767 77.9317 19.14 77.0783 19.14ZM77.0783 17.96C77.685 17.96 78.2083 17.85 78.6483 17.63C79.0883 17.41 79.4283 17.0967 79.6683 16.69C79.915 16.2833 80.0383 15.8033 80.0383 15.25C80.0383 14.6967 79.915 14.2167 79.6683 13.81C79.4283 13.4033 79.0883 13.09 78.6483 12.87C78.2083 12.65 77.685 12.54 77.0783 12.54C76.4783 12.54 75.955 12.65 75.5083 12.87C75.0683 13.09 74.725 13.4033 74.4783 13.81C74.2383 14.2167 74.1183 14.6967 74.1183 15.25C74.1183 15.8033 74.2383 16.2833 74.4783 16.69C74.725 17.0967 75.0683 17.41 75.5083 17.63C75.955 17.85 76.4783 17.96 77.0783 17.96ZM89.6107 18.2L89.0707 18.26V11.5H90.3507V19H88.6707L83.4107 12.24L83.9407 12.18V19H82.6607V11.5H84.3807L89.6107 18.2ZM93.026 17.28V16.19H98.266V17.28H93.026ZM96.506 11.5L100.106 19H98.696L95.426 12H95.936L92.666 19H91.256L94.856 11.5H96.506ZM102.132 12.11H103.452V19H102.132V12.11ZM99.0315 11.5H106.552V12.66H99.0315V11.5ZM113.543 14.7V15.8H108.303V14.7H113.543ZM109.173 15.25L108.643 18.6L108.013 17.86H113.833V19H107.293L107.893 15.25L107.293 11.5H113.783V12.64H108.013L108.643 11.9L109.173 15.25Z" fill="#F5F5F7"/>
<path d="M75.213 32.559L75.604 31.662C76.938 31.6927 78.0343 31.8997 78.893 32.283C79.767 32.651 80.4187 33.1724 80.848 33.847C81.2773 34.5064 81.492 35.273 81.492 36.147C81.492 37.0824 81.2773 37.918 80.848 38.654C80.4187 39.3747 79.7747 39.9497 78.916 40.379C78.0727 40.793 77.0147 41 75.742 41H63L64.334 32.145L63 23.75H75.282C76.8767 23.75 78.1187 24.1257 79.008 24.877C79.8973 25.613 80.342 26.6404 80.342 27.959C80.342 28.6797 80.1733 29.3697 79.836 30.029C79.4987 30.6884 78.9543 31.248 78.203 31.708C77.467 32.1527 76.4703 32.4364 75.213 32.559ZM67.715 39.896L65.875 37.665H74.454C75.144 37.665 75.6807 37.4964 76.064 37.159C76.4473 36.8217 76.639 36.354 76.639 35.756C76.639 35.158 76.432 34.6827 76.018 34.33C75.604 33.962 74.9907 33.778 74.178 33.778H67.094V30.512H73.534C74.086 30.512 74.546 30.351 74.914 30.029C75.2973 29.6917 75.489 29.2394 75.489 28.672C75.489 28.212 75.328 27.8364 75.006 27.545C74.684 27.2384 74.224 27.085 73.626 27.085H65.898L67.715 24.854L68.888 32.145L67.715 39.896Z" fill="#EA3A3B"/>
<path d="M93.2423 41.368C91.203 41.368 89.409 40.9924 87.8603 40.241C86.327 39.4897 85.131 38.4394 84.2723 37.09C83.429 35.7407 83.0073 34.169 83.0073 32.375C83.0073 30.581 83.429 29.0094 84.2723 27.66C85.131 26.3107 86.327 25.2604 87.8603 24.509C89.409 23.7577 91.203 23.382 93.2423 23.382C95.297 23.382 97.091 23.7577 98.6243 24.509C100.158 25.2604 101.354 26.3107 102.212 27.66C103.071 29.0094 103.5 30.581 103.5 32.375C103.5 34.169 103.071 35.7407 102.212 37.09C101.354 38.4394 100.158 39.4897 98.6243 40.241C97.091 40.9924 95.297 41.368 93.2423 41.368ZM93.2423 37.113C94.3616 37.113 95.3276 36.9214 96.1403 36.538C96.953 36.1547 97.574 35.6104 98.0033 34.905C98.448 34.1997 98.6703 33.3564 98.6703 32.375C98.6703 31.3937 98.448 30.5504 98.0033 29.845C97.574 29.1397 96.953 28.5954 96.1403 28.212C95.3276 27.8287 94.3616 27.637 93.2423 27.637C92.1383 27.637 91.18 27.8287 90.3673 28.212C89.5546 28.5954 88.926 29.1397 88.4813 29.845C88.0366 30.5504 87.8143 31.3937 87.8143 32.375C87.8143 33.3564 88.0366 34.1997 88.4813 34.905C88.926 35.6104 89.5546 36.1547 90.3673 36.538C91.18 36.9214 92.1383 37.113 93.2423 37.113Z" fill="#EA3A3B"/>
<path d="M115.434 41.368C113.394 41.368 111.6 40.9924 110.052 40.241C108.518 39.4897 107.322 38.4394 106.464 37.09C105.62 35.7407 105.199 34.169 105.199 32.375C105.199 30.581 105.62 29.0094 106.464 27.66C107.322 26.3107 108.518 25.2604 110.052 24.509C111.6 23.7577 113.394 23.382 115.434 23.382C117.488 23.382 119.282 23.7577 120.816 24.509C122.349 25.2604 123.545 26.3107 124.404 27.66C125.262 29.0094 125.692 30.581 125.692 32.375C125.692 34.169 125.262 35.7407 124.404 37.09C123.545 38.4394 122.349 39.4897 120.816 40.241C119.282 40.9924 117.488 41.368 115.434 41.368ZM115.434 37.113C116.553 37.113 117.519 36.9214 118.332 36.538C119.144 36.1547 119.765 35.6104 120.195 34.905C120.639 34.1997 120.862 33.3564 120.862 32.375C120.862 31.3937 120.639 30.5504 120.195 29.845C119.765 29.1397 119.144 28.5954 118.332 28.212C117.519 27.8287 116.553 27.637 115.434 27.637C114.33 27.637 113.371 27.8287 112.559 28.212C111.746 28.5954 111.117 29.1397 110.673 29.845C110.228 30.5504 110.006 31.3937 110.006 32.375C110.006 33.3564 110.228 34.1997 110.673 34.905C111.117 35.6104 111.746 36.1547 112.559 36.538C113.371 36.9214 114.33 37.113 115.434 37.113Z" fill="#EA3A3B"/>
<path d="M153.357 23.75V41H148.826V25.452L149.838 25.567L143.168 41H138.338L131.645 25.613L132.68 25.498V41H128.149V23.75H135.509L141.696 38.562H139.856L145.997 23.75H153.357Z" fill="#EA3A3B"/>
</svg>
