<svg width="154" height="60" viewBox="0 0 154 60" fill="none" xmlns="http://www.w3.org/2000/svg">
<path d="M16.4864 47.0504C15.3928 47.5907 11.8274 49.1244 11.749 46.8281C11.6443 43.7531 14.3154 39.8121 15.9655 37.26C16.0495 37.13 16.1133 36.7401 16.0402 36.6078C15.7468 36.0769 11.3306 36.1173 9.12999 34.4087C7.89926 33.4533 7.62963 31.8061 8.53418 30.5279C9.60524 29.0136 12.6767 27.8782 14.3801 27.5598L17.4318 26.9892C17.658 26.9469 17.9967 26.7758 18.0739 26.5961C18.1492 26.4202 18.1092 26.0121 17.9958 25.8076C16.796 23.6436 14.6338 19.617 14.8394 17.1639C14.9013 16.4254 15.4377 15.9289 16.1773 16.0708C16.8969 16.2088 17.6087 16.4651 18.2707 16.8201C20.0842 17.7921 21.753 18.8617 23.463 20.0216C23.5965 20.1122 23.9839 20.152 24.1076 20.0674C24.2314 19.9828 24.3819 19.7449 24.4282 19.5512C24.9365 17.4146 25.7286 14.1557 27.5452 12.8651C28.4519 12.221 29.5117 12.4411 30.1307 13.3543C30.8015 14.3443 31.2874 15.4149 31.7423 16.5469L32.3635 18.0913C32.4044 18.1928 32.5994 18.3585 32.69 18.3868C32.7987 18.4205 33.0196 18.3197 33.1268 18.2145C35.1418 16.2383 39.6651 11.8998 42.4725 11.951C44.9484 11.9962 42.4771 17.9946 42.0003 19.1418L40.3966 23.0021C40.3335 23.1538 40.3525 23.5177 40.4291 23.65C40.5165 23.801 40.8746 23.9203 41.0952 23.9002C42.6959 23.754 52.0781 22.4684 50.8486 25.9412C50.6143 26.6034 50.2259 27.2163 49.7254 27.7401C47.2292 30.3533 44.524 31.7056 41.3736 33.3152C41.1927 33.4078 40.9443 33.7122 40.9071 33.8894C40.869 34.0713 40.9664 34.4224 41.094 34.6129C41.8294 35.7134 47.8541 44.1997 44.5828 44.4719C42.0585 44.6822 38.6069 42.922 36.2935 41.8015C36.0782 41.6972 35.7145 41.6479 35.5395 41.7405C35.3314 41.8505 35.1668 42.1991 35.1339 42.4707C34.9727 43.7999 34.8377 45.0826 34.3741 46.2998C33.8726 47.6158 32.5822 48.1728 31.3199 47.5742C28.6282 46.2979 27.1637 41.557 26.4197 41.3385C26.2317 41.2834 25.7801 41.348 25.6046 41.4638L21.8886 43.9096C20.127 45.0692 18.3751 46.1163 16.4864 47.0497V47.0504ZM16.8547 43.9583C18.3657 42.9905 19.7649 41.9854 21.2146 40.925L25.4849 37.8011C25.8973 37.4996 26.3775 37.2664 26.8422 37.0912C27.414 36.8758 27.9826 37.1408 28.2541 37.6834L30.4241 42.0223C30.6338 42.4415 31.3468 43.4573 31.8991 43.2681C32.415 43.0916 32.4931 42.2188 32.5097 41.6868L32.62 38.0927C32.6288 37.8125 32.8328 37.4165 33.0287 37.303C33.2327 37.1847 33.688 37.1405 33.9154 37.2734L36.4357 38.7438C37.1305 39.149 40.1485 40.9908 40.754 40.3983C41.0533 40.1053 40.8765 39.5637 40.6765 39.2466C39.2933 37.0534 38.0332 35.7916 36.5538 33.7503C36.3813 33.5124 36.3207 33.036 36.4072 32.7666C36.4737 32.5593 36.7615 32.2879 37.028 32.1623C39.4117 31.0374 41.732 29.9388 44.0469 28.6847C44.5718 28.4004 45.916 27.639 45.6967 27.0302C45.4686 26.3973 42.2963 26.9237 41.4951 27.0343L36.4359 27.7325C36.1682 27.7694 35.7254 27.6329 35.5892 27.4488C35.1477 26.8527 35.8645 25.605 36.2129 24.8993L38.7703 19.7214C39.0399 19.1756 39.8423 17.4492 39.3849 17.0726C38.9621 16.7247 38.0345 17.4327 37.6582 17.7587C36.2138 19.0102 34.9459 20.3705 33.6792 21.8069C32.9349 22.651 32.0076 23.9664 31.0896 23.6973C30.8369 23.6232 30.5338 23.26 30.4519 22.9388L29.723 20.0804C29.5474 19.3922 29.0474 17.1136 28.3269 17.2157C27.4449 17.3407 27.2081 20.4777 27.1271 21.3517L26.8847 23.9652C26.8603 24.2266 26.6197 24.5386 26.4422 24.648C25.8545 25.0099 24.9228 24.3093 24.331 23.8764C22.9444 22.8621 21.6084 21.8854 20.1717 20.9443C19.8627 20.742 19.2531 20.5779 19.03 20.9102C18.831 21.207 18.9681 21.7824 19.135 22.1172C19.8492 23.5517 20.7003 24.841 21.569 26.1791L22.6541 27.8511C22.8238 28.1125 22.8503 28.6125 22.7031 28.8864C22.5841 29.1078 22.2217 29.3861 21.9048 29.415L18.9528 29.6834C16.4354 29.9124 12.6067 30.0657 10.3667 31.1248C10.0758 31.2622 9.87961 31.6617 9.90834 31.9343C9.93302 32.1687 10.2392 32.5048 10.5379 32.592C11.9108 32.9934 13.2737 33.1915 14.7169 33.3646L20.8 34.0945C21.0471 34.1241 21.3596 34.4211 21.4202 34.611C21.4818 34.8038 21.3462 35.1383 21.1975 35.3183L17.9292 39.2705C17.4284 39.8761 14.2614 44.0129 15.1431 44.5409C15.4987 44.754 16.5013 44.1844 16.8547 43.9579V43.9583Z" fill="#EA3A3B"/>
<path d="M28.9402 32.327C28.9365 33.6154 27.9079 34.4395 26.7134 34.3861C25.6208 34.3371 24.5678 33.6027 24.5494 32.4145L24.5016 29.352C24.4906 28.6583 24.9727 28.0403 25.6861 27.9999C26.3403 27.963 26.9793 27.9617 27.6536 27.9824C28.3372 28.0034 28.9509 28.567 28.949 29.2721L28.9402 32.327Z" fill="#EA3A3B"/>
<path d="M32.3394 33.8706C33.5411 33.8706 34.5153 32.879 34.5153 31.6557C34.5153 30.4325 33.5411 29.4408 32.3394 29.4408C31.1376 29.4408 30.1635 30.4325 30.1635 31.6557C30.1635 32.879 31.1376 33.8706 32.3394 33.8706Z" fill="#EA3A3B"/>
<path d="M102.097 52.986C100.284 52.986 98.6898 52.6939 97.3134 52.1096C95.9505 51.5254 94.8875 50.7087 94.1243 49.6594C93.3748 48.6102 93 47.388 93 45.993C93 44.598 93.3748 43.3758 94.1243 42.3266C94.8875 41.2773 95.9505 40.4606 97.3134 39.8764C98.6898 39.2921 100.284 39 102.097 39C103.923 39 105.518 39.2921 106.88 39.8764C108.243 40.4606 109.306 41.2773 110.069 42.3266C110.833 43.3758 111.214 44.598 111.214 45.993C111.214 47.388 110.833 48.6102 110.069 49.6594C109.306 50.7087 108.243 51.5254 106.88 52.1096C105.518 52.6939 103.923 52.986 102.097 52.986ZM102.097 49.6773C103.092 49.6773 103.95 49.5283 104.673 49.2302C105.395 48.9321 105.947 48.5088 106.328 47.9603C106.724 47.4119 106.921 46.7561 106.921 45.993C106.921 45.2299 106.724 44.5741 106.328 44.0257C105.947 43.4772 105.395 43.0539 104.673 42.7558C103.95 42.4577 103.092 42.3087 102.097 42.3087C101.116 42.3087 100.264 42.4577 99.5416 42.7558C98.8193 43.0539 98.2605 43.4772 97.8653 44.0257C97.4701 44.5741 97.2725 45.2299 97.2725 45.993C97.2725 46.7561 97.4701 47.4119 97.8653 47.9603C98.2605 48.5088 98.8193 48.9321 99.5416 49.2302C100.264 49.5283 101.116 49.6773 102.097 49.6773Z" fill="#EA3A3B"/>
<rect x="93" y="39" width="18.6649" height="7.77605" fill="#070707"/>
<path d="M65.6845 11.5C66.5378 11.5 67.2845 11.6567 67.9245 11.97C68.5711 12.2833 69.0745 12.7233 69.4345 13.29C69.7945 13.85 69.9745 14.5033 69.9745 15.25C69.9745 15.9967 69.7945 16.6533 69.4345 17.22C69.0745 17.78 68.5711 18.2167 67.9245 18.53C67.2845 18.8433 66.5378 19 65.6845 19H62.2945V11.5H65.6845ZM63.6145 18.54L62.8845 17.84H65.7745C66.3478 17.84 66.8478 17.7333 67.2745 17.52C67.7078 17.3 68.0411 16.9967 68.2745 16.61C68.5145 16.2167 68.6345 15.7633 68.6345 15.25C68.6345 14.73 68.5145 14.2767 68.2745 13.89C68.0411 13.5033 67.7078 13.2033 67.2745 12.99C66.8478 12.77 66.3478 12.66 65.7745 12.66H62.8845L63.6145 11.96V18.54ZM75.1593 19.14C74.306 19.14 73.556 18.9767 72.9093 18.65C72.2626 18.3233 71.7593 17.87 71.3993 17.29C71.0393 16.7033 70.8593 16.0233 70.8593 15.25C70.8593 14.4767 71.0393 13.8 71.3993 13.22C71.7593 12.6333 72.2626 12.1767 72.9093 11.85C73.556 11.5233 74.306 11.36 75.1593 11.36C76.0126 11.36 76.7626 11.5233 77.4093 11.85C78.056 12.1767 78.5593 12.6333 78.9193 13.22C79.2793 13.8 79.4593 14.4767 79.4593 15.25C79.4593 16.0233 79.2793 16.7033 78.9193 17.29C78.5593 17.87 78.056 18.3233 77.4093 18.65C76.7626 18.9767 76.0126 19.14 75.1593 19.14ZM75.1593 17.96C75.766 17.96 76.2893 17.85 76.7293 17.63C77.1693 17.41 77.5093 17.0967 77.7493 16.69C77.996 16.2833 78.1193 15.8033 78.1193 15.25C78.1193 14.6967 77.996 14.2167 77.7493 13.81C77.5093 13.4033 77.1693 13.09 76.7293 12.87C76.2893 12.65 75.766 12.54 75.1593 12.54C74.5593 12.54 74.036 12.65 73.5893 12.87C73.1493 13.09 72.806 13.4033 72.5593 13.81C72.3193 14.2167 72.1993 14.6967 72.1993 15.25C72.1993 15.8033 72.3193 16.2833 72.5593 16.69C72.806 17.0967 73.1493 17.41 73.5893 17.63C74.036 17.85 74.5593 17.96 75.1593 17.96ZM87.6917 18.2L87.1517 18.26V11.5H88.4317V19H86.7517L81.4917 12.24L82.0217 12.18V19H80.7417V11.5H82.4617L87.6917 18.2ZM91.107 17.28V16.19H96.347V17.28H91.107ZM94.587 11.5L98.187 19H96.777L93.507 12H94.017L90.747 19H89.337L92.937 11.5H94.587ZM100.213 12.11H101.533V19H100.213V12.11ZM97.1125 11.5H104.633V12.66H97.1125V11.5ZM111.624 14.7V15.8H106.384V14.7H111.624ZM107.254 15.25L106.724 18.6L106.094 17.86H111.914V19H105.374L105.974 15.25L105.374 11.5H111.864V12.64H106.094L106.724 11.9L107.254 15.25Z" fill="#F5F5F7"/>
<path d="M73.294 32.559L73.685 31.662C75.019 31.6927 76.1153 31.8997 76.974 32.283C77.848 32.651 78.4997 33.1723 78.929 33.847C79.3583 34.5063 79.573 35.273 79.573 36.147C79.573 37.0823 79.3583 37.918 78.929 38.654C78.4997 39.3747 77.8557 39.9497 76.997 40.379C76.1537 40.793 75.0957 41 73.823 41H61.081L62.415 32.145L61.081 23.75H73.363C74.9577 23.75 76.1997 24.1257 77.089 24.877C77.9783 25.613 78.423 26.6403 78.423 27.959C78.423 28.6797 78.2543 29.3697 77.917 30.029C77.5797 30.6883 77.0353 31.248 76.284 31.708C75.548 32.1527 74.5513 32.4363 73.294 32.559ZM65.796 39.896L63.956 37.665H72.535C73.225 37.665 73.7617 37.4963 74.145 37.159C74.5283 36.8217 74.72 36.354 74.72 35.756C74.72 35.158 74.513 34.6827 74.099 34.33C73.685 33.962 73.0717 33.778 72.259 33.778H65.175V30.512H71.615C72.167 30.512 72.627 30.351 72.995 30.029C73.3783 29.6917 73.57 29.2393 73.57 28.672C73.57 28.212 73.409 27.8363 73.087 27.545C72.765 27.2383 72.305 27.085 71.707 27.085H63.979L65.796 24.854L66.969 32.145L65.796 39.896ZM91.3233 41.368C89.284 41.368 87.49 40.9923 85.9413 40.241C84.408 39.4897 83.212 38.4393 82.3533 37.09C81.51 35.7407 81.0883 34.169 81.0883 32.375C81.0883 30.581 81.51 29.0093 82.3533 27.66C83.212 26.3107 84.408 25.2603 85.9413 24.509C87.49 23.7577 89.284 23.382 91.3233 23.382C93.378 23.382 95.172 23.7577 96.7053 24.509C98.2386 25.2603 99.4346 26.3107 100.293 27.66C101.152 29.0093 101.581 30.581 101.581 32.375C101.581 34.169 101.152 35.7407 100.293 37.09C99.4346 38.4393 98.2386 39.4897 96.7053 40.241C95.172 40.9923 93.378 41.368 91.3233 41.368ZM91.3233 37.113C92.4426 37.113 93.4086 36.9213 94.2213 36.538C95.034 36.1547 95.655 35.6103 96.0843 34.905C96.529 34.1997 96.7513 33.3563 96.7513 32.375C96.7513 31.3937 96.529 30.5503 96.0843 29.845C95.655 29.1397 95.034 28.5953 94.2213 28.212C93.4086 27.8287 92.4426 27.637 91.3233 27.637C90.2193 27.637 89.261 27.8287 88.4483 28.212C87.6356 28.5953 87.007 29.1397 86.5623 29.845C86.1176 30.5503 85.8953 31.3937 85.8953 32.375C85.8953 33.3563 86.1176 34.1997 86.5623 34.905C87.007 35.6103 87.6356 36.1547 88.4483 36.538C89.261 36.9213 90.2193 37.113 91.3233 37.113ZM113.515 41.368C111.475 41.368 109.681 40.9923 108.133 40.241C106.599 39.4897 105.403 38.4393 104.545 37.09C103.701 35.7407 103.28 34.169 103.28 32.375C103.28 30.581 103.701 29.0093 104.545 27.66C105.403 26.3107 106.599 25.2603 108.133 24.509C109.681 23.7577 111.475 23.382 113.515 23.382C115.569 23.382 117.363 23.7577 118.897 24.509C120.43 25.2603 121.626 26.3107 122.485 27.66C123.343 29.0093 123.773 30.581 123.773 32.375C123.773 34.169 123.343 35.7407 122.485 37.09C121.626 38.4393 120.43 39.4897 118.897 40.241C117.363 40.9923 115.569 41.368 113.515 41.368ZM113.515 37.113C114.634 37.113 115.6 36.9213 116.413 36.538C117.225 36.1547 117.846 35.6103 118.276 34.905C118.72 34.1997 118.943 33.3563 118.943 32.375C118.943 31.3937 118.72 30.5503 118.276 29.845C117.846 29.1397 117.225 28.5953 116.413 28.212C115.6 27.8287 114.634 27.637 113.515 27.637C112.411 27.637 111.452 27.8287 110.64 28.212C109.827 28.5953 109.198 29.1397 108.754 29.845C108.309 30.5503 108.087 31.3937 108.087 32.375C108.087 33.3563 108.309 34.1997 108.754 34.905C109.198 35.6103 109.827 36.1547 110.64 36.538C111.452 36.9213 112.411 37.113 113.515 37.113ZM151.438 23.75V41H146.907V25.452L147.919 25.567L141.249 41H136.419L129.726 25.613L130.761 25.498V41H126.23V23.75H133.59L139.777 38.562H137.937L144.078 23.75H151.438Z" fill="#EA3A3B"/>
</svg>
